HIERARCHY
ROOT Hips
{
	OFFSET	0.00	0.00	0.00
	CHANNELS 6 Xposition Yposition Zposition Zrotation Xrotation Yrotation
	JOINT LeftUpLeg
	{
		OFFSET	 0.126116	-0.014019	-0.065224
		CHANNELS 3 Zrotation Xrotation Yrotation
		JOINT LeftLeg
		{
			OFFSET	 0.000000	 0.000000	 0.569914
			CHANNELS 3 Zrotation Xrotation Yrotation
			JOINT LeftFoot
			{
				OFFSET	 0.000000	 0.000000	 0.544423
				CHANNELS 3 Zrotation Xrotation Yrotation
				JOINT LeftToeBase
				{
					OFFSET	 0.000000	 0.000000	 0.207117
					CHANNELS 3 Zrotation Xrotation Yrotation
					End Site
					{
						OFFSET	 0.000000	 0.000000	 0.207117
					}
				}
			}
		}
	}
	JOINT RightUpLeg
	{
		OFFSET	-0.124023	-0.008373	-0.065224
		CHANNELS 3 Zrotation Xrotation Yrotation
		JOINT RightLeg
		{
			OFFSET	 0.000000	 0.000000	 0.570047
			CHANNELS 3 Zrotation Xrotation Yrotation
			JOINT RightFoot
			{
				OFFSET	 0.000000	 0.000000	 0.544354
				CHANNELS 3 Zrotation Xrotation Yrotation
				JOINT RightToeBase
				{
					OFFSET	 0.000000	 0.000000	 0.207540
					CHANNELS 3 Zrotation Xrotation Yrotation
					End Site
					{
						OFFSET	 0.000000	 0.000000	 0.207540
					}
				}
			}
		}
	}
	JOINT Spine
	{
		OFFSET	 0.000184	-0.007763	 0.117403
		CHANNELS 3 Zrotation Xrotation Yrotation
		JOINT Spine1
		{
			OFFSET	 0.000000	 0.000000	 0.137269
			CHANNELS 3 Zrotation Xrotation Yrotation
			JOINT Spine2
			{
				OFFSET	 0.000000	 0.000000	 0.156879
				CHANNELS 3 Zrotation Xrotation Yrotation
				JOINT LeftShoulder
				{
					OFFSET	 0.080501	-0.002496	 0.160144
					CHANNELS 3 Zrotation Xrotation Yrotation
					JOINT LeftArm
					{
						OFFSET	 0.000000	 0.000000	 0.164363
						CHANNELS 3 Zrotation Xrotation Yrotation
						JOINT LeftForeArm
						{
							OFFSET	 0.000000	 0.000000	 0.364576
							CHANNELS 3 Zrotation Xrotation Yrotation
							JOINT LeftHand
							{
								OFFSET	 0.000000	 0.000000	 0.360812
								CHANNELS 3 Zrotation Xrotation Yrotation
								JOINT LeftHandIndex1
								{
									OFFSET	 0.000000	 0.000000	 0.086006
									CHANNELS 3 Zrotation Xrotation Yrotation
									JOINT LeftHandIndex2
									{
										OFFSET	 0.000000	 0.000000	 0.047237
										CHANNELS 3 Zrotation Xrotation Yrotation
										JOINT LeftHandIndex3
										{
											OFFSET	-0.004284	-0.000551	 0.038165
											CHANNELS 3 Zrotation Xrotation Yrotation
											End Site
											{
												OFFSET	-0.004284	-0.000551	 0.038165
											}
										}
									}
								}
							}
						}
					}
				}
				JOINT Neck
				{
					OFFSET	 0.000000	 0.000000	 0.176489
					CHANNELS 3 Zrotation Xrotation Yrotation
					JOINT Head
					{
						OFFSET	 0.000000	-0.001747	 0.077940
						CHANNELS 3 Zrotation Xrotation Yrotation
						End Site
						{
							OFFSET	 0.000000	-0.001747	 0.077940
						}
					}
				}
				JOINT RightShoulder
				{
					OFFSET	-0.080363	 0.000306	 0.159706
					CHANNELS 3 Zrotation Xrotation Yrotation
					JOINT RightArm
					{
						OFFSET	 0.000000	 0.000000	 0.164196
						CHANNELS 3 Zrotation Xrotation Yrotation
						JOINT RightForeArm
						{
							OFFSET	 0.000000	 0.000000	 0.365611
							CHANNELS 3 Zrotation Xrotation Yrotation
							JOINT RightHand
							{
								OFFSET	 0.000000	 0.000000	 0.360648
								CHANNELS 3 Zrotation Xrotation Yrotation
								JOINT RightHandIndex1
								{
									OFFSET	 0.000000	 0.000000	 0.069977
									CHANNELS 3 Zrotation Xrotation Yrotation
									JOINT RightHandIndex2
									{
										OFFSET	 0.000000	 0.000000	 0.052305
										CHANNELS 3 Zrotation Xrotation Yrotation
										JOINT RightHandIndex3
										{
											OFFSET	 0.009002	-0.000782	 0.042196
											CHANNELS 3 Zrotation Xrotation Yrotation
											End Site
											{
												OFFSET	 0.009002	-0.000782	 0.042196
											}
										}
									}
								}
							}
						}
					}
				}
			}
		}
	}
}
MOTION
Frames:    10
Frame Time: 0.03333334
-0.440909	-0.033331	 1.273319	-179.588900	-3.479127	 0.872106	 20.122880	 0.820925	 174.814600	-6.624354	-11.143740	-1.395865	-3.928227	 70.414700	-5.630236	-2.385833	 28.452760	 0.000004	 15.410970	 0.977750	 178.387800	 1.966104	-12.959280	 0.099456	 14.571810	 69.853460	 1.082852	 2.384659	 28.388700	-0.000001	 3.369083	 8.681346	-4.530983	 2.329304	-0.184650	 11.221920	-6.115489	 0.889479	-10.619400	-91.776220	 78.527360	-180.000000	-24.615790	-3.917946	-11.860650	 1.906752	-0.034682	-0.557008	-0.863957	-37.635280	-2.032181	-4.130319	 21.525730	 0.991547	-5.167930	 0.731704	 3.519349	-1.378229	 35.397820	-2.634230	-2.536187	 0.263442	 1.387216	-15.709550	-25.372030	-13.365980	 89.782160	 78.203870	 179.999900	 44.488300	-1.338195	-3.186477	-12.361700	-9.642440	 56.616550	 48.503990	 40.242690	 17.304380	 5.716227	 19.173190	-3.685159	 5.027444	 0.246877	-9.377972	-2.350882	 35.473990	 5.254307
-0.441223	-0.033731	 1.272494	-179.295800	-4.152601	 1.399613	 23.965450	-1.138327	 173.597200	-8.770374	-15.473960	-2.510368	-1.213440	 72.226190	-6.501359	-2.385833	 28.452760	 0.000004	 14.933850	 0.603074	 178.061500	 3.123883	-15.029160	 0.415315	 9.044086	 70.043980	 5.928166	 2.384659	 28.388700	-0.000001	 2.994645	 9.613800	-4.833643	 2.299334	 0.383560	 10.082570	-6.799215	-0.427976	-9.872409	-91.776210	 78.527380	-180.000000	-32.644230	 0.088050	 7.321259	 0.099999	-1.845790	-41.633710	-1.646387	-36.594380	-2.518018	-4.130319	 21.525730	 0.991547	-5.167930	 0.731704	 3.519349	-1.378229	 35.397820	-2.634230	-3.028857	 1.023507	 1.969480	-16.993500	-27.837790	-16.250310	 89.782230	 78.203900	 179.999900	 53.895830	 4.811462	-7.395031	-10.760250	-11.118380	 67.018880	 58.766200	 43.651460	 12.586320	 5.716227	 19.173190	-3.685159	 5.027444	 0.246877	-9.377972	-2.350882	 35.473990	 5.254307
-0.441867	-0.034883	 1.269972	-178.817600	-4.476346	 1.435325	 23.141660	-4.175956	 173.491900	-9.663103	-23.412110	-4.099305	-5.214283	 76.952580	-1.982381	-2.385833	 28.452760	 0.000004	 14.043630	-2.139018	 179.137700	 3.628758	-21.853530	 0.784263	 11.689580	 73.321950	 2.635136	 2.384659	 28.388700	-0.000001	 1.360657	 10.335390	-4.563072	 1.697605	 0.430095	 9.180759	-6.877116	-0.614242	-9.355604	-91.776160	 78.527420	 180.000000	-34.402550	 7.567014	 24.885450	-1.741250	-2.427565	-84.657970	-1.928654	-37.067050	-2.726119	-4.130319	 21.525730	 0.991547	-5.167930	 0.731704	 3.519349	-1.378229	 35.397820	-2.634230	-3.142237	 1.161644	 2.333285	-17.307110	-28.098180	-17.575490	 89.782100	 78.203900	 180.000000	 55.428310	 13.016190	-13.653300	-5.969602	-11.549890	 90.783410	 60.765920	 29.177870	-0.561600	 5.716227	 19.173190	-3.685159	 5.027444	 0.246877	-9.377972	-2.350882	 35.473990	 5.254307
-0.443101	-0.036900	 1.265430	-178.148900	-4.837348	 1.124059	 21.072510	-7.156764	 173.908200	-10.804360	-32.805600	-6.215445	-18.897880	 82.554790	 12.045500	-2.385833	 28.452760	 0.000004	 13.187060	-5.389857	-178.525800	 4.094956	-30.322170	 1.299308	 21.764160	 77.228870	-8.421021	 2.384659	 28.388700	-0.000001	-1.278549	 11.328180	-3.789161	 0.619099	 0.561261	 8.053590	-6.939042	-0.890841	-8.753160	-91.776250	 78.527400	-179.999900	-27.979680	 31.588720	 27.329700	-3.126188	-1.800672	-123.262700	-2.123152	-37.892990	-2.894800	-4.130319	 21.525730	 0.991547	-5.167930	 0.731704	 3.519349	-1.378229	 35.397820	-2.634230	-3.067755	 0.744168	 1.989228	-17.119100	-27.488430	-16.974650	 89.782170	 78.203920	 179.999900	 49.075450	 34.776340	-10.930170	-1.907346	-8.690214	 116.339100	 44.379720	 4.513981	-19.723770	 5.716227	 19.173190	-3.685159	 5.027444	 0.246877	-9.377972	-2.350882	 35.473990	 5.254307
-0.445274	-0.039428	 1.259970	-177.195400	-5.416494	 0.817118	 18.414530	-9.120883	 174.491400	-12.171340	-41.145160	-8.456511	-76.220290	 86.112890	 69.560310	-2.385833	 28.452760	 0.000004	 12.175390	-7.736640	-175.659000	 4.740986	-37.518360	 1.961320	 37.479680	 79.557300	-25.389650	 2.384659	 28.388700	-0.000001	-4.467309	 12.085170	-3.121788	-0.555222	 2.084322	 7.178574	-7.361775	-2.183832	-8.335076	-91.776150	 78.527400	 180.000000	 31.787300	 53.863550	-45.646350	-2.718779	-1.481292	-118.163600	-2.467052	-38.792430	-3.112256	-4.130319	 21.525730	 0.991547	-5.167930	 0.731704	 3.519349	-1.378229	 35.397820	-2.634230	-2.980733	-0.346074	 0.396535	-16.576360	-26.210390	-13.207390	 89.782130	 78.203900	 180.000000	-5.147518	 60.922710	 44.254650	-1.701897	-8.071820	 119.622000	 3.175452	-10.272920	-33.861600	 5.716227	 19.173190	-3.685159	 5.027444	 0.246877	-9.377972	-2.350882	 35.473990	 5.254307
-0.450033	-0.042021	 1.256186	-176.320600	-5.919952	 0.415756	 15.547610	-9.604670	 175.578600	-12.892820	-45.705790	-9.716809	-120.441900	 84.500180	 113.739200	-2.385833	 28.452760	 0.000004	 10.649830	-8.932183	-173.033500	 5.364035	-41.597210	 2.552394	 45.741110	 79.353640	-34.790700	 2.384659	 28.388700	-0.000001	-7.470905	 12.580890	-2.745040	-1.243066	 3.223220	 7.710665	-7.716311	-2.852686	-8.664823	-91.776120	 78.527360	 180.000000	 53.698430	 45.093950	-88.186560	-1.837179	-0.891941	-85.454930	-3.050927	-39.778300	-3.439548	-4.130319	 21.525730	 0.991547	-5.167930	 0.731704	 3.519349	-1.378229	 35.397820	-2.634230	-3.650687	 1.294731	 1.581776	-17.447270	-27.376830	-16.065610	 89.782140	 78.203890	 180.000000	-59.482690	 48.314170	 102.084100	-5.206673	-8.468196	 97.629680	-25.994150	-25.475290	-31.202310	 5.716227	 19.173190	-3.685159	 5.027444	 0.246877	-9.377972	-2.350882	 35.473990	 5.254307
-0.457771	-0.044108	 1.256158	-175.331500	-6.148364	 0.717182	 13.208770	-9.164959	 176.047100	-12.353710	-45.318500	-9.260283	-117.395600	 84.423360	 110.507600	-2.385833	 28.452760	 0.000004	 8.607591	-8.866854	-172.714600	 5.888873	-41.362900	 2.888458	 37.662440	 77.920640	-27.176430	 2.384659	 28.388700	-0.000001	-9.606110	 12.498260	-3.119036	-0.944545	 3.784082	 8.691135	-7.818302	-2.876761	-9.112908	-91.776210	 78.527400	-180.000000	 51.865270	 45.947230	-83.812650	-1.879874	-0.151894	-90.074430	-3.620536	-41.088980	-3.822355	-4.130319	 21.525730	 0.991547	-5.167930	 0.731704	 3.519349	-1.378229	 35.397820	-2.634230	-4.049039	 2.249803	 2.435949	-17.868910	-27.685170	-17.802750	 89.782110	 78.203870	 180.000000	-73.510830	 37.678560	 117.160200	-8.038596	-7.436563	 77.870290	-36.759590	-42.472690	-26.691670	 5.716227	 19.173190	-3.685159	 5.027444	 0.246877	-9.377972	-2.350882	 35.473990	 5.254307
-0.465700	-0.045466	 1.256295	-174.359800	-5.862997	 0.966201	 11.052550	-8.934459	 176.757700	-11.522350	-44.285170	-8.525804	-108.925400	 84.670130	 101.747500	-2.385833	 28.452760	 0.000004	 6.966967	-9.861349	-172.231300	 6.595129	-42.007720	 3.399564	 30.589750	 76.821400	-20.492870	 2.384659	 28.388700	-0.000001	-11.544890	 12.023210	-3.147678	-0.259748	 3.476017	 9.320242	-7.849682	-2.411920	-9.350244	-91.776190	 78.527360	-180.000000	 48.997000	 47.440170	-76.783740	-1.765122	 0.587203	-97.455280	-4.202142	-42.623650	-4.295171	-4.130319	 21.525730	 0.991547	-5.167930	 0.731704	 3.519349	-1.378229	 35.397820	-2.634230	-4.075194	 1.659550	 1.975747	-17.569950	-26.562720	-16.318800	 89.782110	 78.203850	 180.000000	-76.099890	 35.482210	 113.146700	-9.384264	-6.012400	 65.141150	-27.216390	-59.979180	-10.304030	 5.716227	 19.173190	-3.685159	 5.027444	 0.246877	-9.377972	-2.350882	 35.473990	 5.254307
-0.472696	-0.045515	 1.255698	-173.542200	-5.249522	 0.694353	 8.951015	-8.716393	 178.206900	-10.732570	-43.316990	-7.801431	-103.338200	 84.987610	 95.696980	-2.385833	 28.452760	 0.000004	 6.977129	-12.390300	-170.685200	 6.833313	-45.348360	 3.783316	 30.982750	 76.333300	-21.282990	 2.384659	 28.388700	-0.000001	-13.291410	 11.241020	-2.703899	 0.737316	 2.502372	 10.573910	-7.896987	-1.559815	-9.978338	-91.776120	 78.527400	 180.000000	 49.659920	 46.955300	-77.575680	-1.600106	 1.414274	-97.917130	-4.878603	-44.275380	-4.884941	-4.130319	 21.525730	 0.991547	-5.167930	 0.731704	 3.519349	-1.378229	 35.397820	-2.634230	-4.058535	 0.320522	 0.950554	-17.093700	-24.827350	-13.494550	 89.782140	 78.203900	 179.999900	-66.956650	 39.672390	 93.221400	-11.011030	-3.377191	 40.320510	 52.376870	-55.832740	 73.104650	 5.716227	 19.173190	-3.685159	 5.027444	 0.246877	-9.377972	-2.350882	 35.473990	 5.254307
-0.477514	-0.045461	 1.256100	-172.662400	-4.777490	 0.494034	 6.701506	-8.408750	 179.284000	-9.946562	-42.384240	-7.126942	-100.335700	 85.266660	 92.207160	-2.385833	 28.452760	 0.000004	 8.626376	-14.741740	-169.456500	 5.912760	-48.399350	 3.285712	 37.529280	 76.539380	-27.670170	 2.384659	 28.388700	-0.000001	-15.020710	 10.471310	-2.695329	 2.034952	 2.697444	 12.355300	-7.948786	-1.392811	-10.855500	-91.776150	 78.527380	 180.000000	 50.166420	 46.483950	-78.323760	-1.378070	 2.404154	-98.738220	-5.762443	-46.175980	-5.625633	-4.130319	 21.525730	 0.991547	-5.167930	 0.731704	 3.519349	-1.378229	 35.397820	-2.634230	-4.050677	-0.531183	 0.558784	-16.862870	-23.787210	-12.171310	 89.782100	 78.203830	 180.000000	-53.227220	 43.073370	 81.349640	-10.966580	-1.242131	 23.253290	 67.578290	-34.069240	 86.509840	 5.716227	 19.173190	-3.685159	 5.027444	 0.246877	-9.377972	-2.350882	 35.473990	 5.254307
